<?xml version="1.0" encoding="UTF-8"?>
<svg id="Layer_1" data-name="Layer 1" xmlns="http://www.w3.org/2000/svg" viewBox="60 60 760 760">
  <defs>
    <style>
      .cls-1 {
        fill: #fff;
      }

      .cls-2 {
        fill: #70b5e3;
      }

      .cls-3 {
        fill: #262626;
      }
    </style>
  </defs>
  <circle class="cls-1" cx="450" cy="450" r="362.63"/>
  <g>
    <path class="cls-2" d="m671.81,228.19c-59.25-59.25-138.02-91.88-221.81-91.88s-162.56,32.63-221.81,91.88c-59.25,59.25-91.88,138.02-91.88,221.81s32.63,162.56,91.88,221.81c59.25,59.25,138.02,91.88,221.81,91.88s162.56-32.63,221.81-91.88c10.99-10.99,21.06-22.66,30.18-34.9l-30.57-22.67c-50.24,67.62-130.71,111.44-221.43,111.44-152.25,0-275.68-123.43-275.68-275.68s123.43-275.68,275.68-275.68c90.69,0,171.14,43.79,221.38,111.38l30.56-22.68c-9.11-12.22-19.16-23.86-30.13-34.83Z"/>
    <path class="cls-3" d="m450,111.33c-90.46,0-175.51,35.23-239.47,99.19-63.97,63.97-99.19,149.01-99.19,239.47s35.23,175.51,99.19,239.47c63.97,63.97,149.01,99.19,239.47,99.19s175.51-35.23,239.47-99.19c63.97-63.97,99.19-149.01,99.19-239.47s-35.23-175.51-99.19-239.47c-63.97-63.97-149.01-99.19-239.47-99.19Zm151.06,335.69c.32-6.99,2.24-13.55,5.47-19.32l69.45,19.32h-74.92Zm74.92,4l-69.45,19.32c-3.23-5.77-5.15-12.33-5.47-19.32h74.92Zm-71.29-27.98l-119.38-33.21c9.56-15.14,22.65-27.83,38.11-36.92l95.26,56.08c-5.59,3.66-10.36,8.45-14,14.05Zm-2.12,3.56c-3.27,6.14-5.2,13.07-5.51,20.42h-128.91c.4-19.51,5.81-37.79,15.01-53.64l119.41,33.22Zm-5.51,24.42c.31,7.35,2.24,14.29,5.51,20.42l-119.71,33.3c-9.11-15.89-14.43-34.2-14.72-53.72h128.93Zm7.63,23.98c3.64,5.6,8.41,10.39,14,14.05l-95.79,56.39c-15.41-9.17-28.44-21.94-37.92-37.14l119.71-33.3Zm4.04-1.12l67.74-18.84-53.88,31.72c-5.5-3.25-10.24-7.64-13.86-12.87Zm0-49.72c3.62-5.24,8.36-9.63,13.86-12.87l53.88,31.72-67.74-18.84Zm18.04-15.06c5.51-2.5,11.6-3.92,18.02-3.92,1,0,1.97.08,2.95.15l32.31,35.14-53.28-31.37Zm-4.14-2.44l-95.17-56.03c15.64-8.34,33.48-13.09,52.41-13.09,1.91,0,3.8.05,5.68.14l58.42,63.53c-7.69.13-14.93,2.08-21.34,5.44Zm-106.45-62.66l-87.9-51.75c25.72-14.22,55.25-22.33,86.65-22.33,2.85,0,5.68.08,8.49.22l51.68,56.2c-21.5.82-41.6,7.16-58.92,17.67Zm-3.78,2.42c-15.67,10.31-28.86,24.09-38.45,40.25l-112.03-31.16c15.47-25.06,36.94-46.03,62.37-60.96l88.11,51.87Zm-40.51,43.83c-9.29,16.91-14.7,36.24-15.08,56.77h-121.52c.46-32.03,9.33-62.04,24.52-87.95l112.08,31.18Zm-15.09,60.77c.28,20.55,5.59,39.9,14.79,56.85l-112.39,31.26c-15-26-23.7-56.06-23.94-88.12h121.54Zm16.85,60.43c9.52,16.22,22.64,30.07,38.26,40.46l-88.66,52.2c-25.33-15.09-46.67-36.21-61.98-61.39l112.39-31.26Zm42.03,42.88c17.29,10.6,37.38,17.05,58.88,17.97l-52.28,56.85c-2.44.1-4.88.19-7.34.19-31.84,0-61.74-8.36-87.7-22.94l88.45-52.07Zm11.22-6.61l95.73-56.35c6.4,3.36,13.65,5.31,21.34,5.44l-58.99,64.15c-1.69.08-3.4.13-5.11.13-19.15,0-37.19-4.85-52.96-13.37Zm99.87-58.79l53.28-31.37-32.31,35.14c-.98.07-1.95.15-2.95.15-6.43,0-12.52-1.43-18.02-3.92Zm61.47-34.36c-2.36,18.52-16.28,33.46-34.3,37.3l34.3-37.3Zm-34.3-48.42c18.02,3.84,31.94,18.79,34.3,37.3l-34.3-37.3Zm-4.35-4.73l-58.19-63.28c51.92,5.35,93.39,46.39,99.45,98.1-5.19-18.7-21.44-32.84-41.26-34.82Zm-69.14-75.2l-51.21-55.69c66.88,5.3,123.55,47.34,149.77,105.91-22.33-30.3-58.17-50.03-98.57-50.22Zm-65.51-74.98c-1.13,0-2.24.07-3.36.09l-44.55-48.45c75.7,5.16,142.16,44.49,184.05,102.65-35.56-33.61-83.46-54.29-136.14-54.29Zm-8.67.22c-35.27,1.53-68.17,12.31-96.35,29.97l-80.81-47.57c35.78-20.1,77.02-31.59,120.9-31.59,3.78,0,7.54.1,11.28.27l44.98,48.91Zm-100.12,32.39c-25.75,16.96-47.31,39.74-62.83,66.46l-104.77-29.14c21.38-34.98,51.19-64.26,86.58-85.02l81.03,47.7Zm-64.89,70.04c-15.32,27.69-24.19,59.4-24.63,93.11h-114.22c.52-44.55,12.85-86.3,34.02-122.27l104.84,29.16Zm-24.66,97.11c.23,33.74,8.91,65.51,24.05,93.28l-105.16,29.25c-20.89-36.11-32.92-77.95-33.11-122.53h114.22Zm26.11,96.86c15.37,26.84,36.79,49.77,62.45,66.88l-81.59,48.03c-35.24-21.01-64.84-50.51-85.97-85.67l105.11-29.24Zm66.22,69.3c28.11,17.85,60.97,28.86,96.25,30.58l-45.62,49.62c-3.17.12-6.34.2-9.54.2-44.53,0-86.35-11.82-122.49-32.48l81.41-47.92Zm101.56,30.72c1.49.03,2.96.11,4.46.11,53.36,0,101.82-21.21,137.51-55.6-42.13,59.68-109.94,99.98-187.21,104.69l45.24-49.2Zm17.55-19.09l51.84-56.38c41.1,0,77.53-20.27,99.9-51.3-26.04,59.81-83.69,102.75-151.74,107.68Zm62.76-68.25l58.8-63.94c20.03-2,36.41-16.43,41.42-35.42-5.57,52.48-47.6,94.24-100.21,99.36Zm80.6-274.86c-50.24-67.59-130.7-111.38-221.38-111.38-152.25,0-275.68,123.43-275.68,275.68s123.43,275.68,275.68,275.68c90.71,0,171.19-43.82,221.43-111.44l30.57,22.67c-9.12,12.24-19.19,23.91-30.18,34.9-59.25,59.25-138.02,91.88-221.81,91.88s-162.56-32.63-221.81-91.88c-59.25-59.25-91.88-138.02-91.88-221.81s32.63-162.56,91.88-221.81c59.25-59.25,138.02-91.88,221.81-91.88s162.56,32.63,221.81,91.88c10.97,10.97,21.02,22.61,30.13,34.83l-30.56,22.68Z"/>
  </g>
</svg>
